<mxfile host="app.diagrams.net" modified="2023-05-21T21:27:48.072Z" agent="Mozilla/5.0 (Windows NT 10.0; Win64; x64) AppleWebKit/537.36 (KHTML, like Gecko) Chrome/113.0.0.0 Safari/537.36" etag="ZEU0lN6MAukZBxljwNWe" version="21.3.2" type="device">
  <diagram name="Sayfa -1" id="tE6s0PT1UhiUuFl2WLHE">
    <mxGraphModel dx="880" dy="452" grid="1" gridSize="10" guides="1" tooltips="1" connect="1" arrows="1" fold="1" page="1" pageScale="1" pageWidth="827" pageHeight="1169" math="0" shadow="0">
      <root>
        <mxCell id="0" />
        <mxCell id="1" parent="0" />
        <mxCell id="U4pfeCloAVWx65kUOlW9-51" style="edgeStyle=orthogonalEdgeStyle;rounded=0;orthogonalLoop=1;jettySize=auto;html=1;exitX=0.5;exitY=0;exitDx=0;exitDy=0;exitPerimeter=0;entryX=0.333;entryY=1.333;entryDx=0;entryDy=0;entryPerimeter=0;endArrow=blockThin;endFill=0;" parent="1" source="U4pfeCloAVWx65kUOlW9-2" target="U4pfeCloAVWx65kUOlW9-34" edge="1">
          <mxGeometry relative="1" as="geometry" />
        </mxCell>
        <mxCell id="U4pfeCloAVWx65kUOlW9-2" value="Employee" style="shape=umlActor;verticalLabelPosition=bottom;verticalAlign=top;html=1;outlineConnect=0;" parent="1" vertex="1">
          <mxGeometry x="110" y="460" width="30" height="60" as="geometry" />
        </mxCell>
        <mxCell id="U4pfeCloAVWx65kUOlW9-52" style="edgeStyle=orthogonalEdgeStyle;rounded=0;orthogonalLoop=1;jettySize=auto;html=1;exitX=0.5;exitY=0;exitDx=0;exitDy=0;exitPerimeter=0;endArrow=blockThin;endFill=0;" parent="1" source="U4pfeCloAVWx65kUOlW9-3" edge="1">
          <mxGeometry relative="1" as="geometry">
            <mxPoint x="160" y="430" as="targetPoint" />
          </mxGeometry>
        </mxCell>
        <mxCell id="U4pfeCloAVWx65kUOlW9-3" value="Owner" style="shape=umlActor;verticalLabelPosition=bottom;verticalAlign=top;html=1;outlineConnect=0;" parent="1" vertex="1">
          <mxGeometry x="170" y="460" width="30" height="60" as="geometry" />
        </mxCell>
        <mxCell id="U4pfeCloAVWx65kUOlW9-39" style="edgeStyle=orthogonalEdgeStyle;rounded=0;orthogonalLoop=1;jettySize=auto;html=1;exitX=1;exitY=0.5;exitDx=0;exitDy=0;entryX=0;entryY=0.5;entryDx=0;entryDy=0;dashed=1;endArrow=open;endFill=0;" parent="1" source="U4pfeCloAVWx65kUOlW9-18" target="U4pfeCloAVWx65kUOlW9-38" edge="1">
          <mxGeometry relative="1" as="geometry">
            <Array as="points">
              <mxPoint x="400" y="210" />
            </Array>
          </mxGeometry>
        </mxCell>
        <mxCell id="U4pfeCloAVWx65kUOlW9-40" value="&lt;font style=&quot;font-size: 8px;&quot;&gt;&amp;lt;&amp;lt;include&amp;gt;&amp;gt;&lt;/font&gt;" style="edgeLabel;html=1;align=center;verticalAlign=middle;resizable=0;points=[];" parent="U4pfeCloAVWx65kUOlW9-39" vertex="1" connectable="0">
          <mxGeometry x="-0.2726" y="1" relative="1" as="geometry">
            <mxPoint as="offset" />
          </mxGeometry>
        </mxCell>
        <mxCell id="U4pfeCloAVWx65kUOlW9-18" value="Login" style="ellipse;whiteSpace=wrap;html=1;" parent="1" vertex="1">
          <mxGeometry x="300" y="262.5" width="100" height="60" as="geometry" />
        </mxCell>
        <mxCell id="vtSdD_c1PBumj1ZhBwtB-23" style="edgeStyle=orthogonalEdgeStyle;rounded=0;orthogonalLoop=1;jettySize=auto;html=1;entryX=0;entryY=0.5;entryDx=0;entryDy=0;" edge="1" parent="1" source="U4pfeCloAVWx65kUOlW9-34" target="U4pfeCloAVWx65kUOlW9-18">
          <mxGeometry relative="1" as="geometry">
            <Array as="points">
              <mxPoint x="250" y="380" />
              <mxPoint x="250" y="293" />
            </Array>
          </mxGeometry>
        </mxCell>
        <mxCell id="vtSdD_c1PBumj1ZhBwtB-24" style="edgeStyle=orthogonalEdgeStyle;rounded=0;orthogonalLoop=1;jettySize=auto;html=1;entryX=0;entryY=0.5;entryDx=0;entryDy=0;" edge="1" parent="1" source="U4pfeCloAVWx65kUOlW9-34" target="U4pfeCloAVWx65kUOlW9-17">
          <mxGeometry relative="1" as="geometry" />
        </mxCell>
        <mxCell id="vtSdD_c1PBumj1ZhBwtB-25" style="edgeStyle=orthogonalEdgeStyle;rounded=0;orthogonalLoop=1;jettySize=auto;html=1;entryX=-0.01;entryY=0.617;entryDx=0;entryDy=0;entryPerimeter=0;" edge="1" parent="1" source="U4pfeCloAVWx65kUOlW9-34" target="U4pfeCloAVWx65kUOlW9-19">
          <mxGeometry relative="1" as="geometry" />
        </mxCell>
        <mxCell id="vtSdD_c1PBumj1ZhBwtB-26" style="edgeStyle=orthogonalEdgeStyle;rounded=0;orthogonalLoop=1;jettySize=auto;html=1;entryX=0;entryY=0.5;entryDx=0;entryDy=0;" edge="1" parent="1" source="U4pfeCloAVWx65kUOlW9-34" target="vtSdD_c1PBumj1ZhBwtB-2">
          <mxGeometry relative="1" as="geometry" />
        </mxCell>
        <mxCell id="vtSdD_c1PBumj1ZhBwtB-27" style="edgeStyle=orthogonalEdgeStyle;rounded=0;orthogonalLoop=1;jettySize=auto;html=1;entryX=0;entryY=0.5;entryDx=0;entryDy=0;" edge="1" parent="1" source="U4pfeCloAVWx65kUOlW9-34" target="vtSdD_c1PBumj1ZhBwtB-18">
          <mxGeometry relative="1" as="geometry" />
        </mxCell>
        <mxCell id="vtSdD_c1PBumj1ZhBwtB-28" style="edgeStyle=orthogonalEdgeStyle;rounded=0;orthogonalLoop=1;jettySize=auto;html=1;entryX=0;entryY=0.5;entryDx=0;entryDy=0;" edge="1" parent="1" source="U4pfeCloAVWx65kUOlW9-34" target="vtSdD_c1PBumj1ZhBwtB-13">
          <mxGeometry relative="1" as="geometry" />
        </mxCell>
        <mxCell id="U4pfeCloAVWx65kUOlW9-34" value="User" style="shape=umlActor;verticalLabelPosition=bottom;verticalAlign=top;html=1;outlineConnect=0;" parent="1" vertex="1">
          <mxGeometry x="140" y="350" width="30" height="60" as="geometry" />
        </mxCell>
        <mxCell id="U4pfeCloAVWx65kUOlW9-42" value="&lt;font style=&quot;font-size: 8px;&quot;&gt;&amp;lt;&amp;lt;exclude&amp;gt;&amp;gt;&lt;/font&gt;" style="edgeStyle=orthogonalEdgeStyle;rounded=0;orthogonalLoop=1;jettySize=auto;html=1;entryX=0.985;entryY=0.672;entryDx=0;entryDy=0;entryPerimeter=0;endArrow=open;endFill=0;dashed=1;" parent="1" source="U4pfeCloAVWx65kUOlW9-41" target="U4pfeCloAVWx65kUOlW9-18" edge="1">
          <mxGeometry relative="1" as="geometry" />
        </mxCell>
        <mxCell id="U4pfeCloAVWx65kUOlW9-60" value="" style="swimlane;startSize=0;strokeWidth=2;" parent="1" vertex="1">
          <mxGeometry x="280" y="90" width="510" height="730" as="geometry" />
        </mxCell>
        <mxCell id="U4pfeCloAVWx65kUOlW9-44" value="Verify that the role equals to owner" style="ellipse;whiteSpace=wrap;html=1;" parent="U4pfeCloAVWx65kUOlW9-60" vertex="1">
          <mxGeometry x="390" y="420" width="100" height="60" as="geometry" />
        </mxCell>
        <mxCell id="vtSdD_c1PBumj1ZhBwtB-9" value="&lt;font style=&quot;font-size: 8px;&quot;&gt;&amp;lt;&amp;lt;include&amp;gt;&amp;gt;&lt;/font&gt;" style="edgeStyle=orthogonalEdgeStyle;rounded=0;orthogonalLoop=1;jettySize=auto;html=1;entryX=0;entryY=0.5;entryDx=0;entryDy=0;dashed=1;endArrow=open;endFill=0;" edge="1" parent="U4pfeCloAVWx65kUOlW9-60" source="U4pfeCloAVWx65kUOlW9-46" target="U4pfeCloAVWx65kUOlW9-44">
          <mxGeometry relative="1" as="geometry" />
        </mxCell>
        <mxCell id="U4pfeCloAVWx65kUOlW9-46" value="See edit icon for branches" style="ellipse;whiteSpace=wrap;html=1;" parent="U4pfeCloAVWx65kUOlW9-60" vertex="1">
          <mxGeometry x="230" y="380" width="100" height="60" as="geometry" />
        </mxCell>
        <mxCell id="U4pfeCloAVWx65kUOlW9-41" value="Display login error" style="ellipse;whiteSpace=wrap;html=1;" parent="U4pfeCloAVWx65kUOlW9-60" vertex="1">
          <mxGeometry x="260" y="180" width="100" height="60" as="geometry" />
        </mxCell>
        <mxCell id="U4pfeCloAVWx65kUOlW9-19" value="Edit branches" style="ellipse;whiteSpace=wrap;html=1;" parent="U4pfeCloAVWx65kUOlW9-60" vertex="1">
          <mxGeometry x="60" y="380" width="100" height="60" as="geometry" />
        </mxCell>
        <mxCell id="U4pfeCloAVWx65kUOlW9-62" value="&lt;font style=&quot;font-size: 8px;&quot;&gt;&amp;lt;&amp;lt;include&amp;gt;&amp;gt;&lt;/font&gt;" style="edgeStyle=orthogonalEdgeStyle;rounded=0;orthogonalLoop=1;jettySize=auto;html=1;entryX=0;entryY=0.5;entryDx=0;entryDy=0;dashed=1;endArrow=open;endFill=0;" parent="U4pfeCloAVWx65kUOlW9-60" source="U4pfeCloAVWx65kUOlW9-19" target="U4pfeCloAVWx65kUOlW9-46" edge="1">
          <mxGeometry relative="1" as="geometry" />
        </mxCell>
        <mxCell id="vtSdD_c1PBumj1ZhBwtB-6" value="&lt;font style=&quot;font-size: 8px;&quot;&gt;&amp;lt;&amp;lt;include&amp;gt;&amp;gt;&lt;/font&gt;" style="edgeStyle=orthogonalEdgeStyle;rounded=0;orthogonalLoop=1;jettySize=auto;html=1;exitX=1;exitY=0.5;exitDx=0;exitDy=0;entryX=0;entryY=0.5;entryDx=0;entryDy=0;dashed=1;endArrow=open;endFill=0;" edge="1" parent="U4pfeCloAVWx65kUOlW9-60" source="U4pfeCloAVWx65kUOlW9-17" target="vtSdD_c1PBumj1ZhBwtB-5">
          <mxGeometry relative="1" as="geometry" />
        </mxCell>
        <mxCell id="U4pfeCloAVWx65kUOlW9-17" value="List branches" style="ellipse;whiteSpace=wrap;html=1;" parent="U4pfeCloAVWx65kUOlW9-60" vertex="1">
          <mxGeometry x="60" y="270" width="100" height="60" as="geometry" />
        </mxCell>
        <mxCell id="vtSdD_c1PBumj1ZhBwtB-4" value="&lt;font style=&quot;font-size: 8px;&quot;&gt;&amp;lt;&amp;lt;include&amp;gt;&amp;gt;&lt;/font&gt;" style="edgeStyle=orthogonalEdgeStyle;rounded=0;orthogonalLoop=1;jettySize=auto;html=1;entryX=0;entryY=0.5;entryDx=0;entryDy=0;endArrow=open;endFill=0;dashed=1;" edge="1" parent="U4pfeCloAVWx65kUOlW9-60" source="vtSdD_c1PBumj1ZhBwtB-2" target="vtSdD_c1PBumj1ZhBwtB-3">
          <mxGeometry relative="1" as="geometry" />
        </mxCell>
        <mxCell id="vtSdD_c1PBumj1ZhBwtB-2" value="Delete branches" style="ellipse;whiteSpace=wrap;html=1;" vertex="1" parent="U4pfeCloAVWx65kUOlW9-60">
          <mxGeometry x="60" y="460" width="100" height="60" as="geometry" />
        </mxCell>
        <mxCell id="vtSdD_c1PBumj1ZhBwtB-11" value="&lt;font style=&quot;font-size: 8px;&quot;&gt;&amp;lt;&amp;lt;include&amp;gt;&amp;gt;&lt;/font&gt;" style="edgeStyle=orthogonalEdgeStyle;rounded=0;orthogonalLoop=1;jettySize=auto;html=1;exitX=1;exitY=0.5;exitDx=0;exitDy=0;entryX=0;entryY=0.5;entryDx=0;entryDy=0;dashed=1;endArrow=open;endFill=0;" edge="1" parent="U4pfeCloAVWx65kUOlW9-60" source="vtSdD_c1PBumj1ZhBwtB-3" target="U4pfeCloAVWx65kUOlW9-44">
          <mxGeometry relative="1" as="geometry" />
        </mxCell>
        <mxCell id="vtSdD_c1PBumj1ZhBwtB-3" value="See delete icon for branches" style="ellipse;whiteSpace=wrap;html=1;" vertex="1" parent="U4pfeCloAVWx65kUOlW9-60">
          <mxGeometry x="230" y="460" width="100" height="60" as="geometry" />
        </mxCell>
        <mxCell id="U4pfeCloAVWx65kUOlW9-38" value="Verify credentials" style="ellipse;whiteSpace=wrap;html=1;" parent="U4pfeCloAVWx65kUOlW9-60" vertex="1">
          <mxGeometry x="260" y="90" width="100" height="60" as="geometry" />
        </mxCell>
        <mxCell id="vtSdD_c1PBumj1ZhBwtB-8" value="&lt;font style=&quot;font-size: 8px;&quot;&gt;&amp;lt;&amp;lt;include&amp;gt;&amp;gt;&lt;/font&gt;" style="edgeStyle=orthogonalEdgeStyle;rounded=0;orthogonalLoop=1;jettySize=auto;html=1;entryX=0;entryY=0.5;entryDx=0;entryDy=0;dashed=1;endArrow=open;endFill=0;" edge="1" parent="U4pfeCloAVWx65kUOlW9-60" source="vtSdD_c1PBumj1ZhBwtB-5" target="vtSdD_c1PBumj1ZhBwtB-7">
          <mxGeometry relative="1" as="geometry" />
        </mxCell>
        <mxCell id="vtSdD_c1PBumj1ZhBwtB-5" value="See edit icon for branches" style="ellipse;whiteSpace=wrap;html=1;" vertex="1" parent="U4pfeCloAVWx65kUOlW9-60">
          <mxGeometry x="230" y="270" width="100" height="60" as="geometry" />
        </mxCell>
        <mxCell id="vtSdD_c1PBumj1ZhBwtB-7" value="Verify that the role equals to owner or employee" style="ellipse;whiteSpace=wrap;html=1;" vertex="1" parent="U4pfeCloAVWx65kUOlW9-60">
          <mxGeometry x="390" y="270" width="100" height="60" as="geometry" />
        </mxCell>
        <mxCell id="vtSdD_c1PBumj1ZhBwtB-16" value="&lt;font style=&quot;font-size: 8px;&quot;&gt;&amp;lt;&amp;lt;include&amp;gt;&amp;gt;&lt;/font&gt;" style="edgeStyle=orthogonalEdgeStyle;rounded=0;orthogonalLoop=1;jettySize=auto;html=1;dashed=1;endArrow=open;endFill=0;" edge="1" parent="U4pfeCloAVWx65kUOlW9-60" source="vtSdD_c1PBumj1ZhBwtB-13" target="vtSdD_c1PBumj1ZhBwtB-15">
          <mxGeometry relative="1" as="geometry" />
        </mxCell>
        <mxCell id="vtSdD_c1PBumj1ZhBwtB-13" value="Register" style="ellipse;whiteSpace=wrap;html=1;" vertex="1" parent="U4pfeCloAVWx65kUOlW9-60">
          <mxGeometry x="60" y="630" width="100" height="60" as="geometry" />
        </mxCell>
        <mxCell id="vtSdD_c1PBumj1ZhBwtB-15" value="Navigate to Login Page" style="ellipse;whiteSpace=wrap;html=1;" vertex="1" parent="U4pfeCloAVWx65kUOlW9-60">
          <mxGeometry x="230" y="630" width="100" height="60" as="geometry" />
        </mxCell>
        <mxCell id="vtSdD_c1PBumj1ZhBwtB-18" value="Create new branch" style="ellipse;whiteSpace=wrap;html=1;" vertex="1" parent="U4pfeCloAVWx65kUOlW9-60">
          <mxGeometry x="60" y="540" width="100" height="60" as="geometry" />
        </mxCell>
        <mxCell id="vtSdD_c1PBumj1ZhBwtB-21" value="&lt;font style=&quot;font-size: 8px;&quot;&gt;&amp;lt;&amp;lt;include&amp;gt;&amp;gt;&lt;/font&gt;" style="edgeStyle=orthogonalEdgeStyle;rounded=0;orthogonalLoop=1;jettySize=auto;html=1;dashed=1;endArrow=open;endFill=0;" edge="1" parent="U4pfeCloAVWx65kUOlW9-60" source="vtSdD_c1PBumj1ZhBwtB-19" target="U4pfeCloAVWx65kUOlW9-44">
          <mxGeometry relative="1" as="geometry" />
        </mxCell>
        <mxCell id="vtSdD_c1PBumj1ZhBwtB-19" value="See create icon for branches" style="ellipse;whiteSpace=wrap;html=1;" vertex="1" parent="U4pfeCloAVWx65kUOlW9-60">
          <mxGeometry x="230" y="540" width="100" height="60" as="geometry" />
        </mxCell>
        <mxCell id="vtSdD_c1PBumj1ZhBwtB-17" value="&lt;font style=&quot;font-size: 8px;&quot;&gt;&amp;lt;&amp;lt;include&amp;gt;&amp;gt;&lt;/font&gt;" style="edgeStyle=orthogonalEdgeStyle;rounded=0;orthogonalLoop=1;jettySize=auto;html=1;entryX=0;entryY=0.5;entryDx=0;entryDy=0;endArrow=open;endFill=0;dashed=1;" edge="1" parent="U4pfeCloAVWx65kUOlW9-60" source="vtSdD_c1PBumj1ZhBwtB-18" target="vtSdD_c1PBumj1ZhBwtB-19">
          <mxGeometry relative="1" as="geometry" />
        </mxCell>
        <mxCell id="vtSdD_c1PBumj1ZhBwtB-22" value="MindBehind Task" style="text;html=1;align=center;verticalAlign=middle;resizable=0;points=[];autosize=1;strokeColor=none;fillColor=none;" vertex="1" parent="U4pfeCloAVWx65kUOlW9-60">
          <mxGeometry x="190" y="18" width="110" height="30" as="geometry" />
        </mxCell>
      </root>
    </mxGraphModel>
  </diagram>
</mxfile>
